<?xml version="1.0" standalone="no"?>
<svg viewBox="0 0 200 200" xmlns="http://www.w3.org/2000/svg">
  <path fill="#00DC82" d="M49.7,-66.6C61.6,-59.8,66.3,-41.5,68.8,-24.6C71.2,-7.7,71.3,7.8,64.7,18.9C58.2,30.1,45,37,33.1,44.1C21.2,51.2,10.6,58.5,-0.5,59.2C-11.5,59.8,-23.1,53.7,-30.4,45.1C-37.7,36.5,-40.7,25.4,-46.5,13.7C-52.2,2,-60.6,-10.2,-62.7,-25.4C-64.7,-40.6,-60.3,-58.8,-48.8,-65.7C-37.3,-72.6,-18.6,-68.2,0.2,-68.4C18.9,-68.6,37.9,-73.4,49.7,-66.6Z" transform="translate(100 100)" />
</svg>
